<svg xmlns="http://www.w3.org/2000/svg" width="254" height="170" viewBox="0 0 254 170"><path fill="#5BC2E7" d="M210.501291,93.1637806 C231.411291,107.143781 246.661291,155.043781 250.171291,166.883781 C250.551291,168.163781 249.451291,169.363781 248.141291,169.133781 C242.621291,168.143781 227.611291,165.673781 191.331291,163.583781 C160.411291,161.743781 143.751291,151.173781 135.701291,143.103781 C134.261291,141.663781 134.571291,139.273781 136.371291,138.323781 C147.551291,132.423781 181.981291,113.683781 207.061291,93.3837806 C208.051291,92.5837806 209.441291,92.4537806 210.501291,93.1637806 Z M253.771291,1.36378063 C252.831291,8.39378063 247.881291,36.6337806 226.891291,63.2737806 C204.831291,91.1337806 145.341291,122.773781 134.401291,128.443781 C133.601291,128.863781 132.661291,128.293781 132.661291,127.393781 C132.659891,126.487981 132.658785,125.286956 132.657932,123.836472 L132.657262,122.533176 C132.65716,122.306134 132.657063,122.074268 132.656971,121.837711 L132.65609,118.782413 C132.656034,118.510465 132.655983,118.23436 132.655936,117.954232 L132.655969,105.282436 C132.656011,104.920245 132.656055,104.555765 132.656103,104.18913 L132.656983,98.5446134 C132.657052,98.1597584 132.657123,97.7734151 132.657196,97.3857169 L132.657899,93.8634516 C132.657981,93.4688245 132.658065,93.0732428 132.658151,92.6768398 L132.658953,89.0906425 C132.659045,88.690513 132.659138,88.2899626 132.659232,87.8891246 L132.659806,85.4817144 C132.659903,85.0802601 132.660001,84.6787852 132.660099,84.2774231 L132.660991,80.6718117 C132.661091,80.2723271 132.661191,79.8733556 132.661291,79.4750306 L132.66189,77.0939061 C132.66199,76.6987008 132.662089,76.3044089 132.662188,75.9111637 L132.662776,73.5653219 C132.662873,73.1767976 132.66297,72.789587 132.663065,72.4038235 L132.663904,68.9746256 C132.663994,68.5987454 132.664083,68.2247126 132.664171,67.8526606 L132.664928,64.5612768 C132.665007,64.2023105 132.665085,63.8457253 132.665162,63.4916546 L132.665991,59.3720424 C132.666053,59.0402227 132.666111,58.7114513 132.666168,58.3858615 L132.666982,52.0619483 C132.667001,51.78744 132.667017,51.5170474 132.667029,51.2509038 L132.667016,48.2696783 C132.667001,48.0396625 132.666982,47.8144296 132.666959,47.5941129 L132.666107,44.1881896 C132.666033,44.0316715 132.665955,43.8808703 132.665873,43.7359193 L132.665001,42.5929205 C132.664219,41.8323811 132.66319,41.3781192 132.661873,41.2759012 L132.661291,41.2537806 C132.181291,13.5337806 182.111291,8.33378063 210.181291,6.91378063 C210.211291,6.91378063 210.241291,6.91378063 210.261291,6.90378063 C211.086943,6.80378063 211.910308,6.7015311 212.730461,6.59732793 L213.958166,6.43959492 L215.180359,6.27915336 C232.24925,4.01504717 247.4939,1.01986759 252.351291,0.03378063 C253.161291,-0.13621937 253.881291,0.53378063 253.771291,1.36378063 Z M43.2912912,93.1637806 C44.3512912,92.4537806 45.7412912,92.5837806 46.7312912,93.3837806 C71.8112912,113.683781 106.241291,132.423781 117.421291,138.323781 C119.221291,139.273781 119.531291,141.663781 118.091291,143.103781 C110.041291,151.173781 93.3812912,161.743781 62.4612912,163.583781 C26.1812912,165.673781 11.1712912,168.143781 5.65129123,169.133781 C4.34129123,169.363781 3.24129123,168.163781 3.62129123,166.883781 C7.13129123,155.043781 22.3812912,107.143781 43.2912912,93.1637806 Z M1.43129123,0.02378063 C6.76129123,1.11378063 24.5312912,4.59378063 43.5212912,6.90378063 C43.5512912,6.90378063 43.5812912,6.91378063 43.6012912,6.91378063 C71.6612912,8.34378063 121.601291,13.5437806 121.121291,41.2537806 C121.119891,41.2544806 121.118785,41.6137626 121.117932,42.2858601 L121.117262,42.9374842 C121.11716,43.0585003 121.117063,43.1856336 121.116971,43.3187506 L121.11609,45.1948327 C121.116034,45.3736844 121.115983,45.5579861 121.115936,45.7476044 L121.115969,55.5450613 C121.116011,55.8503602 121.116055,56.159241 121.116103,56.4715704 L121.116983,61.3984719 C121.117052,61.7419508 121.117123,62.0882111 121.117196,62.4371194 L121.117899,65.6451857 C121.117981,66.0087808 121.118065,66.3746235 121.118151,66.7425805 L121.118953,70.1076748 C121.119045,70.4871163 121.119138,70.8682717 121.119232,71.2510076 L121.119806,73.5653219 C121.119903,73.9538461 121.120001,74.343684 121.120099,74.7347022 L121.120991,78.2821286 C121.121091,78.6790271 121.121191,79.0767056 121.121291,79.4750306 L121.12189,81.8716712 C121.12199,82.2720485 121.122089,82.6728054 121.122188,83.0738085 L121.122776,85.4817144 C121.122873,85.8831686 121.12297,86.2846022 121.123065,86.6858818 L121.123904,90.2896347 C121.123994,90.6887888 121.124083,91.0873886 121.124171,91.4853006 L121.124928,95.0443354 C121.125007,95.4369198 121.125085,95.828416 121.125162,96.2186907 L121.125991,100.834815 C121.126053,101.213183 121.126111,101.589795 121.126168,101.964519 L121.126982,109.510317 C121.127001,109.852061 121.127017,110.190983 121.127029,110.526948 L121.127016,114.408102 C121.127001,114.718284 121.126982,115.024976 121.126959,115.328044 L121.126107,120.363148 C121.126033,120.617934 121.125955,120.868296 121.125873,121.114101 L121.125001,123.199697 C121.124107,124.937781 121.122891,126.358581 121.121291,127.393781 C121.121291,128.303781 120.181291,128.863781 119.381291,128.443781 C108.451291,122.773781 48.9512912,91.1237806 26.8912912,63.2737806 C5.91129123,36.6337806 0.961291229,8.39378063 0.0112912286,1.35378063 C-0.0987087714,0.53378063 0.611291229,-0.13621937 1.43129123,0.02378063 Z"/></svg>